# xmcd
#
# Track frame offsets:
#	150
#	18690
#	36497
#	64869
#	89272
#	108643
#	128358
#	154211
#	168869
#	193317
#	216931
#	243079
#	263251
#
# Disc length: 3940 seconds
#
# Revision: 0
# Processed by: cddbd v1.5.2PL0 Copyright (c) Steve Scherf et al.
# Submitted via: EasyCDDAExtractor 11.1.0.1
#
DISCID=af0f620d
DTITLE=Kłusem z Blusem - Z Rzeszowa przez Chicago do Kaliforni
DYEAR=2003
DGENRE=Blues
TTITLE0=Od początku
TTITLE1=Blues nikt tylko ty
TTITLE2=Telephone blues
TTITLE3=Powiedzcie ty co tu przyjdą 
TTITLE4=Too late brother
TTITLE5=boogie dla króliczka
TTITLE6=After hours
TTITLE7=Rock with me 
TTITLE8=Umowa o dzieło
TTITLE9=Stefa
TTITLE10=Help me
TTITLE11=Scratch my back
TTITLE12=Breaking up somebody's home
EXTD=
EXTT0=
EXTT1=
EXTT2=
EXTT3=
EXTT4=
EXTT5=
EXTT6=
EXTT7=
EXTT8=
EXTT9=
EXTT10=
EXTT11=
EXTT12=
PLAYORDER=
